<?xml version="1.0" standalone="no"?>
<!DOCTYPE svg PUBLIC "-//W3C//DTD SVG 20010904//EN"
 "http://www.w3.org/TR/2001/REC-SVG-20010904/DTD/svg10.dtd">
<svg version="1.0" xmlns="http://www.w3.org/2000/svg"
 width="260.000000pt" height="260.000000pt" viewBox="0 0 260.000000 260.000000"
 preserveAspectRatio="xMidYMid meet">
<metadata>
Created by potrace 1.11, written by Peter Selinger 2001-2013
</metadata>
<g transform="translate(0.000000,260.000000) scale(0.100000,-0.100000)"
fill="#000000" stroke="none">
<path d="M575 1789 c-235 -27 -405 -159 -405 -314 0 -139 80 -189 423 -265
153 -34 194 -85 124 -155 -58 -58 -177 -73 -257 -33 -50 25 -70 56 -70 106 l0
33 -97 -6 c-54 -3 -136 -8 -182 -11 l-84 -6 6 -65 c7 -73 38 -135 87 -176 88
-74 334 -107 555 -73 156 24 261 71 346 156 62 62 91 120 97 195 11 148 -84
214 -403 280 -160 34 -195 47 -195 75 0 35 17 57 60 74 50 20 129 21 175 2 33
-14 65 -59 65 -91 0 -14 15 -15 123 -10 67 3 146 8 175 11 51 5 52 6 52 37 0
165 -149 249 -435 246 -49 -1 -122 -5 -160 -10z"/>
<path d="M1411 1743 c-6 -21 -19 -74 -29 -118 l-19 -80 187 -5 187 -5 -83
-340 c-46 -187 -83 -346 -84 -353 0 -10 40 -12 182 -10 l183 3 85 352 85 352
190 3 189 3 23 95 c12 52 25 105 28 118 l5 22 -559 0 -560 0 -10 -37z"/>
</g>
</svg>
